{
	"asset":{
		"generator":"Khronos glTF Blender I/O v4.2.57",
		"version":"2.0"
	},
	"scene":0,
	"scenes":[
		{
			"name":"Scene",
			"nodes":[
				0
			]
		}
	],
	"nodes":[
		{
			"mesh":0,
			"name":"Text",
			"scale":[
				1,
				6.3234429359436035,
				1
			],
			"translation":[
				0,
				-1.351742148399353,
				0
			]
		}
	],
	"materials":[
		{
			"alphaMode":"BLEND",
			"doubleSided":true,
			"name":"Material.001",
			"pbrMetallicRoughness":{
				"baseColorFactor":[
					0.800000011920929,
					0.800000011920929,
					0.800000011920929,
					0.4000000059604645
				],
				"metallicFactor":0
			}
		}
	],
	"meshes":[
		{
			"name":"Text.001",
			"primitives":[
				{
					"attributes":{
						"POSITION":0,
						"NORMAL":1,
						"TEXCOORD_0":2
					},
					"indices":3,
					"material":0
				}
			]
		}
	],
	"accessors":[
		{
			"bufferView":0,
			"componentType":5126,
			"count":1625875,
			"max":[
				3.386821746826172,
				0.34803909063339233,
				3.2938032150268555
			],
			"min":[
				-3.277926445007324,
				-0.347988098859787,
				-3.386286735534668
			],
			"type":"VEC3"
		},
		{
			"bufferView":1,
			"componentType":5126,
			"count":1625875,
			"type":"VEC3"
		},
		{
			"bufferView":2,
			"componentType":5126,
			"count":1625875,
			"type":"VEC2"
		},
		{
			"bufferView":3,
			"componentType":5125,
			"count":2442240,
			"type":"SCALAR"
		}
	],
	"bufferViews":[
		{
			"buffer":0,
			"byteLength":19510500,
			"byteOffset":0,
			"target":34962
		},
		{
			"buffer":0,
			"byteLength":19510500,
			"byteOffset":19510500,
			"target":34962
		},
		{
			"buffer":0,
			"byteLength":13007000,
			"byteOffset":39021000,
			"target":34962
		},
		{
			"buffer":0,
			"byteLength":9768960,
			"byteOffset":52028000,
			"target":34963
		}
	],
	"buffers":[
		{
			"byteLength":61796960,
			"uri":"Balloon-output.bin"
		}
	]
}
